# xmcd
#
# Track frame offsets: 
#        150
#        16397
#        34500
#        52910
#        72567
#        93457
#        112715
#        131320
#        151427
#        173590
#        194757
#        212242
#
# Disc length: 3125 seconds
#
# Revision: 3
# Processed by: cddbd v1.5.2PL0 Copyright (c) Steve Scherf et al.
# Submitted via: ExactAudioCopy v0.99pb4
#
DISCID=9c0c330c
DTITLE=Jocelyn Enriquez - All My Life
DYEAR=2003
DGENRE=Dance
TTITLE0=All My Life
TTITLE1=No Way No How
TTITLE2=It's No Wonder
TTITLE3=Miracles
TTITLE4=Take My Hand
TTITLE5=Your Touch
TTITLE6=Make Me An Angel
TTITLE7=Why
TTITLE8=You Alone
TTITLE9=Walking In The Rain
TTITLE10=No Way No How (JJ Flores Remix)
TTITLE11=Faith, Hope, And Prayer
EXTD=
EXTT0=
EXTT1=
EXTT2=
EXTT3=
EXTT4=
EXTT5=
EXTT6=
EXTT7=
EXTT8=
EXTT9=
EXTT10=
EXTT11=
PLAYORDER=
